# xmcd CD database file
#
# Track frame offsets:
#	150
#	20006
#	49763
#	81188
#	104774
#	135648
#	158670
#	201498
#	225686
#	264233
#	286735
#	313056
#
# Disc length: 4654 seconds
#
# Revision: 1
# Processed by: cddbd v1.5.2PL0 Copyright (c) Steve Scherf et al.
# Submitted via: CDex 1.51
#
DISCID=a6122c0c
DTITLE=Peter Prange - Die Principessa CD05
DYEAR=2005
DGENRE=Hörbuch
TTITLE0=Die Principessa CD05-01
TTITLE1=Die Principessa CD05-02
TTITLE2=Die Principessa CD05-03
TTITLE3=Die Principessa CD05-04
TTITLE4=Die Principessa CD05-05
TTITLE5=Die Principessa CD05-06
TTITLE6=Die Principessa CD05-07
TTITLE7=Die Principessa CD05-08
TTITLE8=Die Principessa CD05-09
TTITLE9=Die Principessa CD05-10
TTITLE10=Die Principessa CD05-11
TTITLE11=Die Principessa CD05-12
EXTD=gelesen von Joachim Kerzel YEAR: 2005
EXTT0=
EXTT1=
EXTT2=
EXTT3=
EXTT4=
EXTT5=
EXTT6=
EXTT7=
EXTT8=
EXTT9=
EXTT10=
EXTT11=
PLAYORDER=
